<!DOCTYPE svg PUBLIC "-//W3C//DTD SVG 1.1//EN" "http://www.w3.org/Graphics/SVG/1.1/DTD/svg11.dtd">
<!-- Uploaded to: SVG Repo, www.svgrepo.com, Transformed by: SVG Repo Mixer Tools -->
<svg width="800px" height="800px" viewBox="-2.4 -2.4 28.80 28.80" fill="none" xmlns="http://www.w3.org/2000/svg" stroke="#000000" transform="rotate(0)">
<g id="SVGRepo_bgCarrier" stroke-width="0">
<rect x="-2.4" y="-2.4" width="28.80" height="28.80" rx="14.4" fill="#dcb35c" strokewidth="0"/>
</g>
<g id="SVGRepo_tracerCarrier" stroke-linecap="round" stroke-linejoin="round" stroke="#CCCCCC" stroke-width="0.528"/>
<g id="SVGRepo_iconCarrier"> <path d="M20 9.33333V6C20 4.89543 19.1046 4 18 4H14.6667M20 9.33333H14.6667M20 9.33333V14.6667M4 9.33333V6C4 4.89543 4.89543 4 6 4H9.33333M4 9.33333H9.33333M4 9.33333V14.6667M14.6667 9.33333H9.33333M14.6667 9.33333V4M14.6667 9.33333V14.6667M9.33333 9.33333V4M9.33333 9.33333V14.6667M20 14.6667V18C20 19.1046 19.1046 20 18 20H14.6667M20 14.6667H14.6667M4 14.6667V18C4 19.1046 4.89543 20 6 20H9.33333M4 14.6667H9.33333M14.6667 14.6667H9.33333M14.6667 14.6667V20M9.33333 14.6667V20M9.33333 4H14.6667M9.33333 20H14.6667" stroke="#000000" stroke-width="2" stroke-linecap="round" stroke-linejoin="round"/> </g>
</svg>